<?xml version="1.0" encoding="utf-8"?>
<!-- Generator: Adobe Illustrator 23.1.0, SVG Export Plug-In . SVG Version: 6.00 Build 0)  -->
<svg version="1.1" id="Layer_1" xmlns="http://www.w3.org/2000/svg" xmlns:xlink="http://www.w3.org/1999/xlink" x="0px" y="0px"
	 viewBox="0 0 201.5 116" style="enable-background:new 0 0 201.5 116;" xml:space="preserve">
<style type="text/css">
	.st0{display:none;fill:#854C9D;stroke:#FFD9A0;stroke-width:3;stroke-linecap:square;}
	.st1{display:none;}
	.st2{display:inline;fill:#854C9D;stroke:#FFD9A0;stroke-width:3;stroke-linecap:square;}
	.st3{display:none;fill:#CE9B51;stroke:#FFD9A0;stroke-width:3;stroke-linecap:square;}
	.st4{fill:#854C9D;stroke:#FFD9A0;stroke-width:3;stroke-linecap:square;}
	.st5{display:none;fill:#854C9D;stroke:#FFD9A0;stroke-width:3;stroke-linecap:square;stroke-miterlimit:10;}
</style>
<g>
	<polygon class="st0" points="553.3,332.3 554.8,333 552.6,326.6 551.9,328 534.7,333.7 534.4,332.6 539.4,322.6 550.1,319.1 
		548,312.6 546.6,315.5 529.4,321.2 526.5,319.8 528.7,326.2 535.1,324.1 530.8,332.6 533.3,340.2 534,338.7 	"/>
	<polygon class="st0" points="544.9,360.9 548.5,366.6 548.9,365.1 559.4,358.5 560.9,352.3 567.1,353.7 563.6,348 561.6,349.2 
		552.3,347 560,342.2 556.4,336.4 555.7,339.5 539.3,349.7 537.8,349.3 540.7,354.1 548.4,349.4 557.8,351.5 557.1,354.7 
		546.5,361.2 	"/>
	<polygon class="st0" points="577.6,367.4 579.2,367.5 570.1,357.4 565.3,357.1 572.9,365.5 559.5,377.7 557.9,377.6 562.5,382.6 
		562.5,381 	"/>
	<polygon class="st0" points="663.5,400 664.6,398.9 651.1,399.1 647.7,402.5 659,402.4 659.3,420.5 658.2,421.6 665,421.5 
		663.9,420.4 	"/>
	<polygon class="st0" points="768.6,314.5 767.8,313.1 764.1,326.2 766.4,330.4 769.5,319.5 786.9,324.4 787.7,325.8 789.6,319.3 
		788.2,320.1 	"/>
	<polygon class="st0" points="583.4,366.2 588.2,365.8 600.3,375.9 595.6,376.3 	"/>
	<polygon class="st0" points="593.9,381.1 595.5,380.9 582.9,371.4 578.1,372 588.9,380.2 579.4,392.9 576.7,390.8 571.9,391.5 
		581.9,399 581.7,397.4 	"/>
	<polygon class="st0" points="603.7,410.3 609.8,413.2 609.2,411.7 618,393.3 619.5,392.7 612.3,389.4 603.3,392.6 606.2,386.5 
		600,383.5 601.1,386.6 592.9,404 591.4,404.5 597.5,407.4 597,405.9 601.3,396.7 611.9,392.9 612.9,393.4 605.2,409.8 	"/>
	<polygon class="st0" points="625,395.6 624.2,394.3 636.3,396.8 632.3,399.5 629,398.8 627.8,404.3 632.3,405.2 633.6,404.4 
		632.2,411 631.3,409.7 626.9,408.7 625.7,414.3 635.7,416.4 639.4,398.6 638.6,397.3 645.2,398.7 643.9,399.6 639.7,419.5 
		640.6,420.8 619.5,416.4 620.8,415.6 622.2,408.9 626.3,406.3 623.6,402.3 	"/>
	<polygon class="st0" points="694.6,394.8 693.1,394.2 704.5,389.1 702.8,393.6 699.7,395 702,400.2 706.1,398.3 706.7,396.8 
		709.5,403 708,402.4 703.9,404.3 706.2,409.5 715.5,405.3 708,388.8 706.5,388.2 712.7,385.4 712.2,386.9 720.5,405.5 722,406 
		702.4,414.9 703,413.4 700.2,407.2 701.9,402.7 697.4,401 	"/>
	<polygon class="st0" points="754.1,348.4 752.5,348.8 758.4,337.9 759.8,342.5 758.2,345.5 763.2,348.1 765.3,344.1 764.9,342.6 
		770.9,345.8 769.3,346.3 767.2,350.3 772.2,352.9 777,343.9 761,335.4 759.5,335.9 762.7,329.9 763.2,331.4 781.1,341 782.6,340.6 
		772.5,359.5 772,358 766.1,354.8 764.7,350.2 760.1,351.6 	"/>
	<polygon class="st0" points="734.1,371.1 734.3,369.6 729,373.7 730.6,373.9 740.4,386.4 732.4,385.4 731.5,393.4 721,380 
		715.7,384.2 718.8,384.6 730.7,399.7 730.5,401.3 735,397.8 734.3,396.9 735.2,389 743.2,389.9 743.9,390.8 748.3,387.3 
		746.7,387.2 	"/>
	<polygon class="st0" points="746,358 747.6,357.8 764.2,369.6 764.4,371.2 769.1,364.8 765.9,365.3 750.3,354.1 750,352.5 	"/>
	<polygon class="st0" points="687.5,396.6 688.3,395.3 672.8,398.6 670.2,402.6 683.5,399.8 686.3,413 676.9,407 672.5,407.9 
		675.4,421.2 682,419.8 679.3,418 677.9,411.4 687.3,417.5 687.5,418.6 693.1,417.4 691.7,416.5 	"/>
	<polygon class="st0" points="681.1,388 686.5,386.6 684.9,389.3 692.6,387.3 690.2,391.5 682.5,393.5 	"/>
	<g class="st1">
		<polygon class="st2" points="739.2,369.7 743,365.5 743.2,368.7 748.5,362.8 748.8,367.6 743.4,373.5 		"/>
		<polygon class="st2" points="746.8,376.5 750.6,372.3 750.7,375.5 756.1,369.7 756.3,374.5 750.9,380.3 		"/>
	</g>
	<path class="st3" d="M823,327.4c-17.3,68.8-76.7,122.1-151.4,128.1c-4.6,0.4-9.1,0.5-13.6,0.6v0.2c-4.5,0-9.1-0.2-13.6-0.6
		c-74.7-6-134.2-59.4-151.4-128.3c1.3,1.1,5.2,1.1,7-0.4c2.2-1.9,2.1-4.2,2.1-4.2c-1.2,1.4-3.7,1.8-6,1c-3.5-1.3-4.8-4.5-5.1-5.6
		c-2-10.3-3-21-3-31.8c2.1,8.1,10.2,12,18.7,16.9c8.5,4.9,11.9,13.1,13.1,17.1c0.2,0.8,0.4,1.5,0.6,2.3l0,0l0,0
		c15,56.7,64.4,100.4,126.2,105.4c3.8,0.3,7.6,0.5,11.4,0.5v-0.2c3.8,0,7.6-0.2,11.4-0.5c61.8-5,111.2-48.7,126.2-105.4l0,0l0,0
		c0.2-0.8,0.4-1.5,0.6-2.3c1.2-4,4.7-12.2,13.1-17.1c8.5-4.9,16.6-8.8,18.7-16.9c0,10.9-1,21.5-3,31.9c0-0.2,0-0.3,0-0.3
		s-1,4.4-5.2,6c-2.2,0.8-4.7,0.4-6-1c0,0-0.1,2.3,2.1,4.2C817.8,328.5,821.8,328.6,823,327.4z M505.3,340.9l-1.3,3l4,10.1l0.4-1
		l12.9-5.2l1,0.4l-1.7-4.3l-0.4,1l-7.9,3.2l-3.6,1.4l-2.3-5.8l11.5-4.6l1,0.4l-1.7-4.3l-0.4,1L505.3,340.9z M515.6,368.3l0.3-1.1
		l10-6l-2.1,8.5l-4.6,2.8l-1.1-0.3l2.4,4l0.3-1.1l11.9-7.2l1.1,0.3l-2.4-4l-0.3,1.1l-4.6,2.8l2.1-8.5l-2-3.3l-0.3,1.1l-12,7.2
		l-1.1-0.3L515.6,368.3z M528.2,385.8l-1.1-0.1l2.8,3.7l0.1-1.1l11.1-8.4l1.1,0.1l-2.8-3.7l-0.2,1.1L528.2,385.8z M611.8,443.3
		l-1,0.5l4.5,1.2l-0.5-1l3.7-13.4l1-0.5l-4.5-1.2l0.5,1L611.8,443.3z M553.3,412l-1.1,0.1l9.7,7.7l-0.4-3.3l-4.9-3.8l2.9-3.6
		l4.2,3.4l0.1,1.1l2.4-3l-1.1,0.1l-4.3-3.4l2.4-3l4.3,3.4l3.3-0.4l-9.1-7.2l0.1,1.1L553.3,412z M704.9,443.1l-0.5,1l4.4-1.3l-1-0.5
		l-0.4-1.5l-1.3-4.4l5.2-1.6l1,0.5l-1.1-3.7l-0.5,1l-5.2,1.6l-1.1-3.7l5.2-1.6l1.6-2.9l-11.1,3.4l1,0.5L704.9,443.1z M574,427.6
		l-0.3-1.1l2.7-4.7l0.7,0.4l2,7.4l-0.4,0.7l4,2.3l-2.3-8.5l2,1.2l3.2-0.9l2.3-4l-0.9-3.2l-9.4-5.4l0.3,1.1l-7,12.1l-1.1,0.3
		L574,427.6z M585.3,418.8l-2.3,4l-5.4-3.1l2.3-4L585.3,418.8z M736.7,430.7l-1-0.3l-2.2-4.1l6.1-3.3l0.9-3.1l-2.6-4.8l-3.1-0.9
		l-9.5,5.1l1,0.3l6.6,12.3l-0.3,1L736.7,430.7z M735.2,416.6l2.6,4.8l-5.5,2.9l-2.6-4.8L735.2,416.6z M637.6,436.2l2.7-1.9l-5.3-0.9
		l0,0l-4.6-0.8l0,0l-2.3-0.4l-2.7,1.9l5.3,0.9l-2.1,12.2l-0.9,0.6l4.6,0.8l-0.6-0.9l2.1-12.2L637.6,436.2z M677.8,436.3l1.9,12.2
		l-0.6,0.9l9.9-1.6l1.9-2.7l-1.9-12.2l0.6-0.9l-9.9,1.6L677.8,436.3z M687.9,445.6l-5.4,0.8l-1.7-10.7l5.4-0.8L687.9,445.6z
		 M765.1,389.2l5.6,15.3v1.1l3.3-3.3h-1.1l-3.3-8.7l8.8,3.2v1.1l3.3-3.3h-1.1L765.1,389.2z M788.5,359.5l8.6,12l0.3,1l2-3.7l-1,0.3
		l-5.1-6.8l8.5,0.7l0.3,1l2-3.7l-1,0.3L788.5,359.5z M790.5,382.8l-4.4-3.3l-3.6-9.4l-0.2-1.1l-2.8,3.7l1.1-0.2l2.7,6.8l-7.3-0.6
		l-0.2-1.1l-2.8,3.7l1.1-0.2l10,0.7l4.4,3.3l0.2,1.1l2.8-3.7L790.5,382.8z M659.3,436l0.8-0.8l-4.6-0.1l0.8,0.8l-4,6.1l-3.7-6.3
		l0.8-0.8l-4.6-0.1l0.8,0.8l5.2,8.6l-0.2,5.5l-0.8,0.8l4.6,0.1l-0.8-0.8l0.2-5.5L659.3,436z M796.3,347.8l11.5,4.6l0.4,1l3.8-9.3
		l-1.3-3l-11.5-4.6l-0.4-1l-3.8,9.3L796.3,347.8z M809.6,343.9l-2,5l-10.1-4l2-5L809.6,343.9z M764.3,411.8l-1.1-0.1l-8.5-11
		l0.1-1.1l-3.7,2.8l1.1,0.1l3.3,4.3l-4.9,3.8l-3.3-4.3l0.1-1.1l-3.7,2.8l1.1,0.1l8.5,11l-0.1,1.1l3.7-2.8l-1.1-0.1l-3.8-4.9l4.9-3.8
		l3.8,4.9l-0.1,1.1L764.3,411.8z M594.2,427.7l1.3,3l5,2l-1.8,4.3l-4.3-1.8l0,0l-3.6-1.5l1.3,3l9.3,3.8l-0.4-1l2.3-5.7l-1.3-3l-5-2
		l1.5-3.6l7.9,3.2l-1.3-3l-9.3-3.8l0.4,1L594.2,427.7z M540.1,401.3l15.4-5.4h1.1l-3.3-3.3v1.1l-8.2,2.7l2.8-8.2h1.1l-3.3-3.3v1.1
		L540.1,401.3z"/>
	<path class="st4" d="M171.9,56.5V31.1c0-0.6,0.2-1.4,0.6-2.2c0.6-1.3,1.7-2.7,3-3.6s2.6-1.3,3.5-1.3V9.9c-3,0-5.7,0.7-8.2,1.9
		c-3.7,1.7-6.8,4.4-9.1,7.7s-3.9,7.2-3.9,11.7v31.3L169,73.6l-11.2,11.2l-14.2-14.2V9.9h-14.2v60.8l-14.2,14.2L104,73.6l0,0l0,0
		l11.2-11.2V31.1c0-11.7-9.5-21.3-21.3-21.3H79.8l0,0h-7.1c0,12.3,0-1,0,49.6v2.9l11.2,11.2L72.7,84.9L47.3,59.5l4.2-4.2V31.1
		c0-11.7-9.5-21.3-21.3-21.3h-7.1V24h7.1c3.9,0,7.1,3.2,7.1,7.1v18.3L13.1,73.6l31.3,31.3l14.2-14.2l14.2,14.2L94,83.7l21.3,21.3
		l21.3-21.3l21.3,21.3L189,73.6L171.9,56.5z M44.4,84.9L33.1,73.6l4.2-4.2l11.2,11.2L44.4,84.9z M86.9,56.5V24H94
		c3.9,0,7.1,3.2,7.1,7.1v25.4L94,63.6L86.9,56.5z"/>
	<path class="st5" d="M721.8,45.3C672,21,658,2.7,658,2.7S644.1,21,594.3,45.3c-27.9,13.6-56.7,28.8-56.7,71.4
		c0,20.4,7.1,169.6,7.1,169.6s2.8-3.8,6-6.9c5.5-5.2,5.4-11.4,0.1-13.6c0,0,1.2-3.3,4.5-3.3V258h8.1c0,0-2.8-1.9-2.8-6.2
		c0-3.5,2.1-5.5,5.8-8.1c3.6-2.6,4.8-5.3,2.5-6.8c0,0-2,0.4-1,2.4c0,0-2.4-0.3-2-2.1c0,0-2.2,1.2-3.7,0.3c-1.6-0.9-2.1-2.2-2.1-2.2
		s1.4,0.2,2.4-0.2c1-0.5,2.1-1.3,2.1-1.3s-1.8-0.4-2.6-0.3c-0.8,0.2-2,0.7-3.3-0.2c-1.4-0.9-2.4-3.4-2.4-5.6c0,0,1.4,1.1,3.3,1.1
		c0,0-2.3-2.2-2.8-4.8c-0.6-2.5-0.8-8.1,3.1-10.3c0,0-1.7,3.8,1.7,7.1l6.2,5.6c0,0-0.1-1.1,1.5-2.5c0,0,0.1,2.1,1.6,3.6
		c0.8,0.8,2,1.9,2.9,3.4v-21.3c0,0-0.5-2-1.4-2.4c0,0,1.2-1.6,2.8-1.6c0,0,0-0.6,0-1.6c0-1.1-3.2-2.5-3.2-5.1c0-2.4,3-2.7,3-2.7
		s0-1.8,0-2.4c0-0.6-1.9-1.3-1.9-2.9c0-1.9,2.2-2.1,2.2-2.1v-6.6c0,0-1.3-2.6-3.1-4v-2h3.3v-21l1.4-3.1h1l1.4,3.1v21h3.3v2
		c-1.8,1.4-3.1,4-3.1,4v6.6c0,0,2.2,0.2,2.2,2.1c0,1.6-1.9,2.3-1.9,2.9c0,0.6,0,2.4,0,2.4s3,0.3,3,2.7c0,2.6-3.2,4.1-3.2,5.1
		c0,1.1,0,1.6,0,1.6c1.7,0,2.8,1.6,2.8,1.6c-0.9,0.4-1.4,2.4-1.4,2.4v37.7c1.5-1.1,2.9-4.9,3.3-8.9c0.3-3.4,0.8-6.4,2.3-9.2
		c0,0,0.9,1.7,2.2,2.2c0,0-0.4-1.3,0-3.5c0.8-4.6,4.1-7.7,6.2-9.7c0,0-2.8-1.7-3.1-4.7c-0.3-2.1,1.2-5.8,3.6-7.6
		c3.3-2.5,4.4-5.2,2.1-6.7c0,0-1.9,0.4-0.9,2.3c0,0-2.2-0.3-1.9-2c0,0-2.1,1.1-3.5,0.3c-1.5-0.9-2-2.1-2-2.1s1.3,0.2,2.2-0.2
		s2-1.2,2-1.2s-1.7-0.4-2.4-0.3c-0.7,0.1-1.9,0.6-3.2-0.2c-1.3-0.9-2.2-3.2-2.2-5.3c0,0,1.3,1.1,3.2,1.1c0,0-2.1-2.1-2.7-4.6
		c-0.6-2.4-0.8-7.7,3-9.8c0,0-1.6,3.6,1.6,6.7l5.2,5.1c0,0,0-1,0.5-2.1c0,0,0.3,1.1,2,2.5c1.5,1.3,2.6,2.5,2.9,3.3v-15.6
		c0,0-0.5-2-1.4-2.4c0,0,1.2-1.6,2.8-1.6c0,0,0-0.6,0-1.6c0-1.1-3.2-2.5-3.2-5.1c0-2.4,3-2.7,3-2.7s0-1.8,0-2.4
		c0-0.6-1.9-1.3-1.9-2.9c0-1.9,2.2-2.1,2.2-2.1v-6.6c0,0-1.3-2.6-3.1-4v-2h3.3v-21l1.4-3.1h1l1.4,3.1v21h3.3v2c-1.8,1.4-3.1,4-3.1,4
		v6.6c0,0,2.2,0.2,2.2,2.1c0,1.6-1.9,2.3-1.9,2.9c0,0.6,0,2.4,0,2.4s3,0.3,3,2.7c0,2.6-3.2,4.1-3.2,5.1c0,1.1,0,1.6,0,1.6
		c1.7,0,2.8,1.6,2.8,1.6c-0.9,0.4-1.4,2.4-1.4,2.4v31.2c1.5-1,3-4.5,3.4-8.2c0.3-3.2,0.8-5.9,2.4-8.4c0,0,0.9,1.5,2.3,2
		c0,0-0.4-1.2,0-3.3c0.9-4.3,4.3-7.1,6.4-8.9c0,0-2.9-1.5-3.2-5.1c-0.2-2,1.5-4.5,3.6-7c1.9-2.2,3.8-4.9,1.5-5.9
		c0,0-1.8,0.4-0.9,2.2c0,0-2.1-0.3-1.8-1.9c0,0-2,1.1-3.4,0.3s-1.9-2-1.9-2s1.2,0.2,2.1-0.2c0.9-0.4,1.9-1.2,1.9-1.2
		s-1.6-0.4-2.3-0.3c-0.7,0.1-1.8,0.6-3-0.2s-2.1-3-2.1-5.1c0,0,1.2,1,3,1c0,0-2-2-2.6-4.3c-0.5-2.3-0.5-7.1,2.6-9.1
		c0,0-1.3,3.2,1.7,6.2l5.6,5.1c0,0-0.1-1.1,1.3-2.1c0,0,0.1,1.7,1.4,3c0.6,0.7,1.6,1.6,2.3,2.8v-17.5c0,0-0.5-2-1.4-2.4
		c0,0,1.2-1.6,2.8-1.6c0,0,0-0.6,0-1.6c0-1.1-3.2-2.5-3.2-5.1c0-2.4,3-2.7,3-2.7s0-1.8,0-2.4s-1.9-1.3-1.9-2.9
		c0-1.9,2.2-2.1,2.2-2.1v-6.6c0,0-1.3-2.6-3.1-4v-2h3.3v-21l1.4-3.1h1l1.4,3.1v21h3.3v2c-1.8,1.4-3.1,4-3.1,4v6.6
		c0,0,2.2,0.2,2.2,2.1c0,1.6-1.9,2.3-1.9,2.9s0,2.4,0,2.4s3,0.3,3,2.7c0,2.6-3.2,4.1-3.2,5.1c0,1.1,0,1.6,0,1.6
		c1.7,0,2.8,1.6,2.8,1.6c-0.9,0.4-1.4,2.4-1.4,2.4v31.5c1.5-1,3-4.5,3.4-8.2c0.3-3.2,0.8-5.9,2.4-8.4c0,0,0.9,1.5,2.3,2
		c0,0-0.4-1.2,0-3.3c0.9-4.3,6.4-6.2,6.4-8c0,0,0.4-1.5-1.5-2.1c-2.4-0.7-3.7-2.3-4-3.9c-0.6-2.9,1.3-5,1.3-5s0.2,1.7,1.7,2.2
		c0,0-1.4-1.9,0.9-3.9c2.5-2.1,2.5-3,2.5-3s0.7,0.5,1.1,1.9c0,0,1.1-0.5,1.1-1.5c0-0.7-0.5-0.9-0.5-2.2c0-0.8,1.8-2.3,1.8-2.3v-16.1
		c0,0-0.5-2-1.4-2.4c0,0,1.2-1.6,2.8-1.6c0,0,0-0.6,0-1.6c0-1.1-3.2-2.5-3.2-5.1c0-2.4,3-2.7,3-2.7s0-1.8,0-2.4s-1.9-1.3-1.9-2.9
		c0-1.9,2.2-2.1,2.2-2.1v-6.6c0,0-1.3-2.6-3.1-4v-2h3.3v-21l1.4-3.1h1l1.4,3.1v21h3.3v2c-1.8,1.4-3.1,4-3.1,4V89
		c0,0,2.2,0.2,2.2,2.1c0,1.6-1.9,2.3-1.9,2.9s0,2.4,0,2.4s3,0.3,3,2.7c0,2.6-3.2,4.1-3.2,5.1c0,1.1,0,1.6,0,1.6
		c1.7,0,2.8,1.6,2.8,1.6c-0.9,0.4-1.4,2.4-1.4,2.4v16.1c0,0,1.8,1.5,1.8,2.3c0,1.3-0.5,1.5-0.5,2.2c0,1,1.1,1.5,1.1,1.5
		c0.4-1.4,1.1-1.9,1.1-1.9s0,0.9,2.5,3c2.3,1.9,0.9,3.9,0.9,3.9c1.4-0.5,1.7-2.2,1.7-2.2s1.9,2,1.3,5c-0.3,1.6-1.6,3.2-4,3.9
		c-2,0.6-1.5,2.1-1.5,2.1c0,1.8,5.5,3.8,6.4,8c0.4,2.1,0,3.3,0,3.3c1.3-0.5,2.3-2,2.3-2c1.6,2.5,2.1,5.3,2.4,8.4
		c0.4,3.7,1.9,7.2,3.4,8.2v-31.5c0,0-0.5-2-1.4-2.4c0,0,1.2-1.6,2.8-1.6c0,0,0-0.6,0-1.6c0-1.1-3.2-2.5-3.2-5.1c0-2.4,3-2.7,3-2.7
		s0-1.8,0-2.4s-1.9-1.3-1.9-2.9c0-1.9,2.2-2.1,2.2-2.1v-6.6c0,0-1.3-2.6-3.1-4v-2h3.3v-21l1.4-3.1h1l1.4,3.1v21h3.3v2
		c-1.8,1.4-3.1,4-3.1,4v6.6c0,0,2.2,0.2,2.2,2.1c0,1.6-1.9,2.3-1.9,2.9s0,2.4,0,2.4s3,0.3,3,2.7c0,2.6-3.2,4.1-3.2,5.1
		c0,1.1,0,1.6,0,1.6c1.7,0,2.8,1.6,2.8,1.6c-0.9,0.4-1.4,2.4-1.4,2.4v17.5c0.6-1.2,1.6-2.1,2.3-2.8c1.3-1.4,1.4-3,1.4-3
		c1.4,0.9,1.3,2.1,1.3,2.1l5.6-5.1c3-3,1.7-6.2,1.7-6.2c3.1,2.1,3.1,6.8,2.6,9.1s-2.6,4.3-2.6,4.3c1.8,0,3-1,3-1
		c0,2-0.9,4.3-2.1,5.1c-1.2,0.8-2.3,0.3-3,0.2s-2.3,0.3-2.3,0.3s1,0.7,1.9,1.2c0.9,0.4,2.1,0.2,2.1,0.2s-0.4,1.2-1.9,2
		c-1.4,0.8-3.4-0.3-3.4-0.3c0.4,1.6-1.8,1.9-1.8,1.9c0.9-1.8-0.9-2.2-0.9-2.2c-2.3,1-0.4,3.8,1.5,5.9c2.1,2.4,3.8,5,3.6,7
		c-0.3,3.7-3.2,5.1-3.2,5.1c2.1,1.8,5.5,4.7,6.4,8.9c0.4,2.1,0,3.3,0,3.3c1.3-0.5,2.3-2,2.3-2c1.6,2.5,2.1,5.3,2.4,8.4
		c0.4,3.7,1.9,7.2,3.4,8.2V177c0,0-0.5-2-1.4-2.4c0,0,1.2-1.6,2.8-1.6c0,0,0-0.6,0-1.6c0-1.1-3.2-2.5-3.2-5.1c0-2.4,3-2.7,3-2.7
		s0-1.8,0-2.4c0-0.6-1.9-1.3-1.9-2.9c0-1.9,2.2-2.1,2.2-2.1v-6.6c0,0-1.3-2.6-3.1-4v-2h3.3v-21l1.4-3.1h1l1.4,3.1v21h3.3v2
		c-1.8,1.4-3.1,4-3.1,4v6.6c0,0,2.2,0.2,2.2,2.1c0,1.6-1.9,2.3-1.9,2.9c0,0.6,0,2.4,0,2.4s3,0.3,3,2.7c0,2.6-3.2,4.1-3.2,5.1
		c0,1.1,0,1.6,0,1.6c1.7,0,2.8,1.6,2.8,1.6c-0.9,0.4-1.4,2.4-1.4,2.4v15.6c0.3-0.8,1.4-2,2.9-3.3c1.7-1.4,2-2.5,2-2.5
		c0.5,1.1,0.5,2.1,0.5,2.1l5.2-5.1c3.2-3.1,1.6-6.7,1.6-6.7c3.7,2.1,3.5,7.3,3,9.8c-0.6,2.4-2.7,4.6-2.7,4.6c1.9,0,3.2-1.1,3.2-1.1
		c0,2.1-0.9,4.5-2.2,5.3c-1.3,0.9-2.4,0.4-3.2,0.2c-0.7-0.1-2.4,0.3-2.4,0.3s1,0.8,2,1.2c0.9,0.4,2.2,0.2,2.2,0.2s-0.5,1.3-2,2.1
		c-1.5,0.9-3.5-0.3-3.5-0.3c0.4,1.7-1.9,2-1.9,2c0.9-1.9-0.9-2.3-0.9-2.3c-2.2,1.4-1.1,4.2,2.1,6.7c2.4,1.9,3.9,5.5,3.6,7.6
		c-0.4,3-3.1,4.7-3.1,4.7c2,2,5.3,5.1,6.2,9.7c0.4,2.3,0,3.5,0,3.5c1.3-0.5,2.2-2.2,2.2-2.2c1.5,2.7,2,5.7,2.3,9.2
		c0.4,4,1.8,7.8,3.3,8.9v-37.7c0,0-0.5-2-1.4-2.4c0,0,1.2-1.6,2.8-1.6c0,0,0-0.6,0-1.6c0-1.1-3.2-2.5-3.2-5.1c0-2.4,3-2.7,3-2.7
		s0-1.8,0-2.4c0-0.6-1.9-1.3-1.9-2.9c0-1.9,2.2-2.1,2.2-2.1v-6.6c0,0-1.3-2.6-3.1-4v-2h3.3v-21l1.4-3.1h1l1.4,3.1v21h3.3v2
		c-1.8,1.4-3.1,4-3.1,4v6.6c0,0,2.2,0.2,2.2,2.1c0,1.6-1.9,2.3-1.9,2.9c0,0.6,0,2.4,0,2.4s3,0.3,3,2.7c0,2.6-3.2,4.1-3.2,5.1
		c0,1.1,0,1.6,0,1.6c1.7,0,2.8,1.6,2.8,1.6c-0.9,0.4-1.4,2.4-1.4,2.4v21.3c0.9-1.5,2.1-2.7,2.9-3.4c1.5-1.5,1.6-3.6,1.6-3.6
		c1.6,1.4,1.5,2.5,1.5,2.5l6.2-5.6c3.3-3.3,1.7-7.1,1.7-7.1c3.9,2.2,3.7,7.7,3.1,10.3c-0.6,2.5-2.8,4.8-2.8,4.8c2,0,3.3-1.1,3.3-1.1
		c0,2.2-1,4.7-2.4,5.6c-1.4,0.9-2.6,0.4-3.3,0.2c-0.8-0.2-2.6,0.3-2.6,0.3s1.1,0.8,2.1,1.3c1,0.4,2.4,0.2,2.4,0.2s-0.5,1.3-2.1,2.2
		s-3.7-0.3-3.7-0.3c0.4,1.8-2,2.1-2,2.1c1-1.9-1-2.4-1-2.4c-2.4,1.5-1.1,4.2,2.5,6.8s5.8,4.7,5.8,8.1c0,4.4-2.8,6.2-2.8,6.2h8.1v4.5
		c3.3,0,4.5,3.3,4.5,3.3c-5.3,2.3-5.3,8.4,0.1,13.6c3.2,3,6,6.9,6,6.9s7.1-149.2,7.1-169.6C778.5,74.1,749.7,58.8,721.8,45.3z
		 M581.8,145.4c-2.7,1.4-4.4,2.5-4.4,3.4c0-1-1.7-2.1-4.4-3.4c-1.6-0.8-2.7-2.7-1.2-5c0.9-1.4,1.2-2.4,0.8-3.4c0,0,2.1,1.9,2.1,3.3
		c0,0,0.7-0.4,0.5-1.3c-0.2-0.8-1.6-1.8-0.7-3.5c0.9-1.7,3-4.4,3-5.8c0,1.4,2.1,4.1,3,5.8s-0.5,2.7-0.7,3.5
		c-0.3,0.9,0.5,1.3,0.5,1.3c0-1.5,2.1-3.3,2.1-3.3c-0.4,1.1-0.1,2,0.8,3.4C584.5,142.7,583.4,144.6,581.8,145.4z M609.2,112.7
		c-2.7,1.4-4.4,2.5-4.4,3.4c0-1-1.7-2.1-4.4-3.4c-1.6-0.8-2.7-2.7-1.2-5c0.9-1.4,1.2-2.4,0.8-3.4c0,0,2.1,1.9,2.1,3.3
		c0,0,0.7-0.4,0.5-1.3c-0.2-0.8-1.6-1.8-0.7-3.5c0.9-1.7,3-4.4,3-5.8c0,1.4,2.1,4.1,3,5.8c0.9,1.7-0.5,2.7-0.7,3.5
		c-0.3,0.9,0.5,1.3,0.5,1.3c0-1.5,2.1-3.3,2.1-3.3c-0.4,1.1-0.1,2,0.8,3.4C611.9,110,610.8,111.9,609.2,112.7z M636.6,75.9
		c-2.7,1.4-4.4,2.5-4.4,3.4c0-1-1.7-2.1-4.4-3.4c-1.6-0.8-2.7-2.7-1.2-5c0.9-1.4,1.2-2.4,0.8-3.4c0,0,2.1,1.9,2.1,3.3
		c0,0,0.8-0.4,0.5-1.3c-0.2-0.8-1.6-1.8-0.7-3.5c0.9-1.7,3-4.4,3-5.8c0,1.4,2.1,4.1,3,5.8s-0.5,2.7-0.7,3.5
		c-0.2,0.9,0.5,1.3,0.5,1.3c0-1.5,2.1-3.3,2.1-3.3c-0.4,1.1-0.1,2,0.8,3.4C639.3,73.2,638.2,75.1,636.6,75.9z M662.5,45.8
		c-2.7,1.4-4.4,2.5-4.4,3.4c0-1-1.7-2.1-4.4-3.4c-1.6-0.8-2.7-2.7-1.2-5c0.9-1.4,1.2-2.4,0.8-3.4c0,0,2.1,1.9,2.1,3.3
		c0,0,0.7-0.4,0.5-1.3c-0.2-0.8-1.6-1.8-0.7-3.5c0.9-1.7,3-4.4,3-5.8c0,1.4,2.1,4.1,3,5.8s-0.5,2.7-0.7,3.5
		c-0.3,0.9,0.5,1.3,0.5,1.3c0-1.5,2.1-3.3,2.1-3.3c-0.4,1.1-0.1,2,0.8,3.4C665.2,43.1,664.1,44.9,662.5,45.8z M688.4,75.9
		c-2.7,1.4-4.4,2.5-4.4,3.4c0-1-1.7-2.1-4.4-3.4c-1.6-0.8-2.7-2.7-1.2-5c0.9-1.4,1.2-2.4,0.8-3.4c0,0,2.1,1.9,2.1,3.3
		c0,0,0.7-0.4,0.5-1.3c-0.2-0.8-1.6-1.8-0.7-3.5c0.9-1.7,3-4.4,3-5.8c0,1.4,2.1,4.1,3,5.8s-0.5,2.7-0.7,3.5
		c-0.3,0.9,0.5,1.3,0.5,1.3c0-1.5,2.1-3.3,2.1-3.3c-0.4,1.1-0.1,2,0.8,3.4C691.1,73.2,690,75.1,688.4,75.9z M715.8,112.7
		c-2.7,1.4-4.4,2.5-4.4,3.4c0-1-1.7-2.1-4.4-3.4c-1.6-0.8-2.7-2.7-1.2-5c0.9-1.4,1.2-2.4,0.8-3.4c0,0,2.1,1.9,2.1,3.3
		c0,0,0.7-0.4,0.5-1.3c-0.2-0.8-1.6-1.8-0.7-3.5c0.9-1.7,3-4.4,3-5.8c0,1.4,2.1,4.1,3,5.8c0.9,1.7-0.5,2.7-0.7,3.5
		c-0.3,0.9,0.5,1.3,0.5,1.3c0-1.5,2.1-3.3,2.1-3.3c-0.4,1.1-0.1,2,0.8,3.4C718.5,110,717.4,111.9,715.8,112.7z M743.2,145.4
		c-2.7,1.4-4.4,2.5-4.4,3.4c0-1-1.7-2.1-4.4-3.4c-1.6-0.8-2.7-2.7-1.2-5c0.9-1.4,1.2-2.4,0.8-3.4c0,0,2.1,1.9,2.1,3.3
		c0,0,0.7-0.4,0.5-1.3c-0.2-0.8-1.6-1.8-0.7-3.5c0.9-1.7,3-4.4,3-5.8c0,1.4,2.1,4.1,3,5.8s-0.5,2.7-0.7,3.5
		c-0.3,0.9,0.5,1.3,0.5,1.3c0-1.5,2.1-3.3,2.1-3.3c-0.4,1.1-0.1,2,0.8,3.4C745.9,142.7,744.8,144.6,743.2,145.4z"/>
</g>
</svg>
