<?xml version="1.0" encoding="utf-8"?>
<!-- Generator: Adobe Illustrator 24.0.1, SVG Export Plug-In . SVG Version: 6.00 Build 0)  -->
<svg version="1.1" id="Layer_1" xmlns="http://www.w3.org/2000/svg" xmlns:xlink="http://www.w3.org/1999/xlink" x="0px" y="0px"
	 viewBox="0 0 80.9 104.6" style="enable-background:new 0 0 80.9 104.6;" xml:space="preserve">
<style type="text/css">
	.st0{fill:url(#SVGID_1_);}
	.st1{fill:url(#SVGID_2_);}
	.st2{fill:url(#SVGID_3_);}
	.st3{fill:url(#SVGID_4_);}
	.st4{fill:url(#SVGID_5_);}
	.st5{fill:url(#SVGID_6_);}
	.st6{fill:url(#SVGID_7_);}
	.st7{fill:url(#SVGID_8_);}
	.st8{fill:url(#SVGID_9_);}
	.st9{fill:url(#SVGID_10_);}
</style>
<title>Artboard 1</title>
<g>
	<linearGradient id="SVGID_1_" gradientUnits="userSpaceOnUse" x1="-8.929" y1="18.1556" x2="45.74" y2="90.7038">
		<stop  offset="0" style="stop-color:#00365A"/>
		<stop  offset="0.25" style="stop-color:#00365A"/>
		<stop  offset="0.5706" style="stop-color:#054E80"/>
		<stop  offset="0.7346" style="stop-color:#075B93"/>
		<stop  offset="0.8391" style="stop-color:#054E80"/>
		<stop  offset="1" style="stop-color:#054E80"/>
	</linearGradient>
	<path class="st0" d="M27.5,79.6l7.4,13.8C40.8,89.8,46.5,86,52.1,82l-23.2-4.3C27.5,77.5,26.9,78.3,27.5,79.6z"/>
	<linearGradient id="SVGID_2_" gradientUnits="userSpaceOnUse" x1="-28.1938" y1="35.6166" x2="24.2205" y2="105.1726">
		<stop  offset="0" style="stop-color:#00365A"/>
		<stop  offset="0.25" style="stop-color:#00365A"/>
		<stop  offset="0.5706" style="stop-color:#054E80"/>
		<stop  offset="0.7346" style="stop-color:#075B93"/>
		<stop  offset="0.8391" style="stop-color:#054E80"/>
		<stop  offset="1" style="stop-color:#054E80"/>
	</linearGradient>
	<path class="st1" d="M19.3,76c-0.3-0.1-1.4,0.6-2.6,1.4l-16.1,12c-1.6,12.2,8.5,19.1,22.1,11.1c2.6-1.4,5.2-2.9,7.7-4.4l-9.4-17.7
		C20.4,77.1,19.6,76.1,19.3,76z"/>
	<linearGradient id="SVGID_3_" gradientUnits="userSpaceOnUse" x1="29.2762" y1="-1.9552" x2="80.453" y2="65.9587">
		<stop  offset="0" style="stop-color:#00365A"/>
		<stop  offset="0.25" style="stop-color:#00365A"/>
		<stop  offset="0.5706" style="stop-color:#054E80"/>
		<stop  offset="0.7346" style="stop-color:#075B93"/>
		<stop  offset="0.8391" style="stop-color:#054E80"/>
		<stop  offset="1" style="stop-color:#054E80"/>
	</linearGradient>
	<path class="st2" d="M65.3,41.4l-9.5,7c-1.1,0.8-1.3,2.4-0.2,3.4l15.9,15.9c10-7.4,11.3-17.5,4.8-25.9l-6.4-1.4
		C68.5,40.1,66.5,40.5,65.3,41.4z"/>
	<linearGradient id="SVGID_4_" gradientUnits="userSpaceOnUse" x1="3.8863" y1="14.4363" x2="55.9145" y2="83.48">
		<stop  offset="0" style="stop-color:#00365A"/>
		<stop  offset="0.25" style="stop-color:#00365A"/>
		<stop  offset="0.5706" style="stop-color:#054E80"/>
		<stop  offset="0.7346" style="stop-color:#075B93"/>
		<stop  offset="0.8391" style="stop-color:#054E80"/>
		<stop  offset="1" style="stop-color:#054E80"/>
	</linearGradient>
	<path class="st3" d="M51.4,54.9c-1-1-2.8-1.1-3.9-0.3L26.6,70.2c-1.1,0.8-0.9,1.8,0.5,2l30.9,5.7c3.2-2.3,6.3-4.7,9.4-7.1
		L51.4,54.9z"/>
	<linearGradient id="SVGID_5_" gradientUnits="userSpaceOnUse" x1="21.7785" y1="0.5222" x2="74.8493" y2="70.9495">
		<stop  offset="0" style="stop-color:#00365A"/>
		<stop  offset="0.25" style="stop-color:#00365A"/>
		<stop  offset="0.5706" style="stop-color:#054E80"/>
		<stop  offset="0.7346" style="stop-color:#075B93"/>
		<stop  offset="0.8391" style="stop-color:#054E80"/>
		<stop  offset="1" style="stop-color:#054E80"/>
	</linearGradient>
	<path class="st4" d="M58.2,37.8l-18.5-4c-1.4-0.3-1.7,0.3-0.7,1.3l9.3,9.3c1,1,2.8,1.1,3.9,0.3l6.4-4.8
		C59.8,39.1,59.6,38.1,58.2,37.8z"/>
	<linearGradient id="SVGID_6_" gradientUnits="userSpaceOnUse" x1="4.5681" y1="13.5239" x2="57.0923" y2="83.2259">
		<stop  offset="0" style="stop-color:#00365A"/>
		<stop  offset="0.25" style="stop-color:#00365A"/>
		<stop  offset="0.5706" style="stop-color:#054E80"/>
		<stop  offset="0.7346" style="stop-color:#075B93"/>
		<stop  offset="0.8391" style="stop-color:#054E80"/>
		<stop  offset="1" style="stop-color:#054E80"/>
	</linearGradient>
	<path class="st5" d="M21.8,25.2L2.3,5.7c-2.4,4-2.5,10,0.6,16.8l18.1,3.9C22.4,26.8,22.8,26.2,21.8,25.2z"/>
	<linearGradient id="SVGID_7_" gradientUnits="userSpaceOnUse" x1="-17.2001" y1="28.7302" x2="34.4428" y2="97.2626">
		<stop  offset="0" style="stop-color:#00365A"/>
		<stop  offset="0.25" style="stop-color:#00365A"/>
		<stop  offset="0.5706" style="stop-color:#054E80"/>
		<stop  offset="0.7346" style="stop-color:#075B93"/>
		<stop  offset="0.8391" style="stop-color:#054E80"/>
		<stop  offset="1" style="stop-color:#054E80"/>
	</linearGradient>
	<path class="st6" d="M15.5,68L7.1,52c0,5.4-0.4,10.9-1.1,16.2l8.3,1.5C15.6,70.1,16.2,69.2,15.5,68z"/>
	<linearGradient id="SVGID_8_" gradientUnits="userSpaceOnUse" x1="23.1401" y1="7.043552e-02" x2="76.6372" y2="71.0634">
		<stop  offset="0" style="stop-color:#00365A"/>
		<stop  offset="0.25" style="stop-color:#00365A"/>
		<stop  offset="0.5706" style="stop-color:#054E80"/>
		<stop  offset="0.7346" style="stop-color:#075B93"/>
		<stop  offset="0.8391" style="stop-color:#054E80"/>
		<stop  offset="1" style="stop-color:#054E80"/>
	</linearGradient>
	<path class="st7" d="M35.4,29.6l26.2,5.7c1.4,0.3,3.5-0.1,4.6-1l0.9-0.7C52.8,22.7,38.6,12.8,22.8,4.1C16,0.1,10-0.2,6,2.1
		l25.1,25.1C32.1,28.2,34.1,29.3,35.4,29.6z"/>
	<linearGradient id="SVGID_9_" gradientUnits="userSpaceOnUse" x1="-24.6949" y1="36.0897" x2="24.9183" y2="101.9285">
		<stop  offset="0" style="stop-color:#00365A"/>
		<stop  offset="0.25" style="stop-color:#00365A"/>
		<stop  offset="0.5706" style="stop-color:#054E80"/>
		<stop  offset="0.7346" style="stop-color:#075B93"/>
		<stop  offset="0.8391" style="stop-color:#054E80"/>
		<stop  offset="1" style="stop-color:#054E80"/>
	</linearGradient>
	<path class="st8" d="M9.4,74.2L5,73.4c-0.5,2.6-1.1,5.2-1.8,7.8l6.6-4.9C11,75.3,10.8,74.4,9.4,74.2z"/>
	<linearGradient id="SVGID_10_" gradientUnits="userSpaceOnUse" x1="1.1198" y1="15.4258" x2="52.9746" y2="84.2395">
		<stop  offset="0" style="stop-color:#00365A"/>
		<stop  offset="0.25" style="stop-color:#00365A"/>
		<stop  offset="0.5706" style="stop-color:#054E80"/>
		<stop  offset="0.7346" style="stop-color:#075B93"/>
		<stop  offset="0.8391" style="stop-color:#054E80"/>
		<stop  offset="1" style="stop-color:#054E80"/>
	</linearGradient>
	<path class="st9" d="M20,65.4c0.7,1.3,2.1,1.6,3.3,0.7l20.5-15.3c1.1-0.8,1.3-2.4,0.2-3.4L29.6,33.1c-1-1-3-2.1-4.4-2.4L3.9,26.1
		c1.1,4.4,1.9,9,2.4,13.6L20,65.4z"/>
</g>
</svg>
