<?xml version="1.0" encoding="utf-8"?>
<!-- Generator: Adobe Illustrator 24.0.1, SVG Export Plug-In . SVG Version: 6.00 Build 0)  -->
<svg version="1.1" id="Layer_1" xmlns="http://www.w3.org/2000/svg" xmlns:xlink="http://www.w3.org/1999/xlink" x="0px" y="0px"
	 viewBox="0 0 327.9 104.6" style="enable-background:new 0 0 327.9 104.6;" xml:space="preserve">
<style type="text/css">
	.st0{fill:#0F0F0F;}
	.st1{fill:url(#SVGID_1_);}
	.st2{fill:url(#SVGID_2_);}
	.st3{fill:url(#SVGID_3_);}
	.st4{fill:url(#SVGID_4_);}
	.st5{fill:url(#SVGID_5_);}
	.st6{fill:url(#SVGID_6_);}
	.st7{fill:url(#SVGID_7_);}
	.st8{fill:url(#SVGID_8_);}
	.st9{fill:url(#SVGID_9_);}
	.st10{fill:url(#SVGID_10_);}
</style>
<title>logo-black</title>
<g>
	<g>
		<path class="st0" d="M154.8,28.2l13.4,37l13.4-37H193l-19.5,49h-11.4l-19.3-49C142.8,28.2,154.8,28.2,154.8,28.2z"/>
		<path class="st0" d="M209.5,28.2v49h-11.1v-49C198.4,28.2,209.5,28.2,209.5,28.2z"/>
		<path class="st0" d="M257.6,28.2v9.2h-26.3V48H255v9.2h-23.6V68h27v9.2h-38.1v-49C220.3,28.2,257.6,28.2,257.6,28.2z"/>
		<path class="st0" d="M277.2,28.2L301,59.7V28.2h10.5v49h-10.1l-23.7-31.4v31.4h-10.6v-49C267.1,28.2,277.2,28.2,277.2,28.2z"/>
	</g>
</g>
<g>
	<linearGradient id="SVGID_1_" gradientUnits="userSpaceOnUse" x1="10.5955" y1="18.1556" x2="65.2646" y2="90.7038">
		<stop  offset="0" style="stop-color:#00365A"/>
		<stop  offset="0.25" style="stop-color:#00365A"/>
		<stop  offset="0.5706" style="stop-color:#054E80"/>
		<stop  offset="0.7346" style="stop-color:#075B93"/>
		<stop  offset="0.8391" style="stop-color:#054E80"/>
		<stop  offset="1" style="stop-color:#054E80"/>
	</linearGradient>
	<path class="st1" d="M47.1,79.6l7.4,13.8C60.3,89.8,66,86,71.6,82l-23.2-4.3C47,77.5,46.4,78.3,47.1,79.6z"/>
	<linearGradient id="SVGID_2_" gradientUnits="userSpaceOnUse" x1="-8.6692" y1="35.6166" x2="43.7451" y2="105.1726">
		<stop  offset="0" style="stop-color:#00365A"/>
		<stop  offset="0.25" style="stop-color:#00365A"/>
		<stop  offset="0.5706" style="stop-color:#054E80"/>
		<stop  offset="0.7346" style="stop-color:#075B93"/>
		<stop  offset="0.8391" style="stop-color:#054E80"/>
		<stop  offset="1" style="stop-color:#054E80"/>
	</linearGradient>
	<path class="st2" d="M38.9,76c-0.3-0.1-1.4,0.6-2.6,1.4l-16.1,12c-1.6,12.2,8.5,19.1,22.1,11.1c2.6-1.4,5.2-2.9,7.7-4.4l-9.4-17.7
		C39.9,77.1,39.1,76.1,38.9,76z"/>
	<linearGradient id="SVGID_3_" gradientUnits="userSpaceOnUse" x1="48.8008" y1="-1.9552" x2="99.9776" y2="65.9587">
		<stop  offset="0" style="stop-color:#00365A"/>
		<stop  offset="0.25" style="stop-color:#00365A"/>
		<stop  offset="0.5706" style="stop-color:#054E80"/>
		<stop  offset="0.7346" style="stop-color:#075B93"/>
		<stop  offset="0.8391" style="stop-color:#054E80"/>
		<stop  offset="1" style="stop-color:#054E80"/>
	</linearGradient>
	<path class="st3" d="M84.9,41.4l-9.5,7c-1.1,0.8-1.3,2.4-0.2,3.4l15.9,15.9c10-7.4,11.3-17.5,4.8-25.9l-6.4-1.4
		C88.1,40.1,86,40.5,84.9,41.4z"/>
	<linearGradient id="SVGID_4_" gradientUnits="userSpaceOnUse" x1="23.4109" y1="14.4363" x2="75.4391" y2="83.48">
		<stop  offset="0" style="stop-color:#00365A"/>
		<stop  offset="0.25" style="stop-color:#00365A"/>
		<stop  offset="0.5706" style="stop-color:#054E80"/>
		<stop  offset="0.7346" style="stop-color:#075B93"/>
		<stop  offset="0.8391" style="stop-color:#054E80"/>
		<stop  offset="1" style="stop-color:#054E80"/>
	</linearGradient>
	<path class="st4" d="M71,54.9c-1-1-2.8-1.1-3.9-0.3L46.1,70.2c-1.1,0.8-0.9,1.8,0.5,2l30.9,5.7c3.2-2.3,6.3-4.7,9.4-7.1L71,54.9z"
		/>
	<linearGradient id="SVGID_5_" gradientUnits="userSpaceOnUse" x1="41.303" y1="0.5222" x2="94.3738" y2="70.9495">
		<stop  offset="0" style="stop-color:#00365A"/>
		<stop  offset="0.25" style="stop-color:#00365A"/>
		<stop  offset="0.5706" style="stop-color:#054E80"/>
		<stop  offset="0.7346" style="stop-color:#075B93"/>
		<stop  offset="0.8391" style="stop-color:#054E80"/>
		<stop  offset="1" style="stop-color:#054E80"/>
	</linearGradient>
	<path class="st5" d="M77.7,37.8l-18.5-4c-1.4-0.3-1.7,0.3-0.7,1.3l9.3,9.3c1,1,2.8,1.1,3.9,0.3l6.4-4.8
		C79.3,39.1,79.1,38.1,77.7,37.8z"/>
	<linearGradient id="SVGID_6_" gradientUnits="userSpaceOnUse" x1="24.0927" y1="13.5239" x2="76.6169" y2="83.2259">
		<stop  offset="0" style="stop-color:#00365A"/>
		<stop  offset="0.25" style="stop-color:#00365A"/>
		<stop  offset="0.5706" style="stop-color:#054E80"/>
		<stop  offset="0.7346" style="stop-color:#075B93"/>
		<stop  offset="0.8391" style="stop-color:#054E80"/>
		<stop  offset="1" style="stop-color:#054E80"/>
	</linearGradient>
	<path class="st6" d="M41.3,25.2L21.8,5.7c-2.4,4-2.5,10,0.6,16.8l18.1,3.9C42,26.8,42.3,26.2,41.3,25.2z"/>
	<linearGradient id="SVGID_7_" gradientUnits="userSpaceOnUse" x1="2.3245" y1="28.7302" x2="53.9674" y2="97.2626">
		<stop  offset="0" style="stop-color:#00365A"/>
		<stop  offset="0.25" style="stop-color:#00365A"/>
		<stop  offset="0.5706" style="stop-color:#054E80"/>
		<stop  offset="0.7346" style="stop-color:#075B93"/>
		<stop  offset="0.8391" style="stop-color:#054E80"/>
		<stop  offset="1" style="stop-color:#054E80"/>
	</linearGradient>
	<path class="st7" d="M35.1,68L26.6,52c0,5.4-0.4,10.9-1.1,16.2l8.3,1.5C35.1,70.1,35.7,69.2,35.1,68z"/>
	<linearGradient id="SVGID_8_" gradientUnits="userSpaceOnUse" x1="42.6647" y1="7.043552e-02" x2="96.1617" y2="71.0634">
		<stop  offset="0" style="stop-color:#00365A"/>
		<stop  offset="0.25" style="stop-color:#00365A"/>
		<stop  offset="0.5706" style="stop-color:#054E80"/>
		<stop  offset="0.7346" style="stop-color:#075B93"/>
		<stop  offset="0.8391" style="stop-color:#054E80"/>
		<stop  offset="1" style="stop-color:#054E80"/>
	</linearGradient>
	<path class="st8" d="M55,29.6l26.2,5.7c1.4,0.3,3.5-0.1,4.6-1l0.9-0.7C72.4,22.7,58.1,12.8,42.3,4.1c-6.8-4-12.8-4.2-16.8-2
		l25.1,25.1C51.6,28.2,53.6,29.3,55,29.6z"/>
	<linearGradient id="SVGID_9_" gradientUnits="userSpaceOnUse" x1="-5.1703" y1="36.0897" x2="44.4428" y2="101.9285">
		<stop  offset="0" style="stop-color:#00365A"/>
		<stop  offset="0.25" style="stop-color:#00365A"/>
		<stop  offset="0.5706" style="stop-color:#054E80"/>
		<stop  offset="0.7346" style="stop-color:#075B93"/>
		<stop  offset="0.8391" style="stop-color:#054E80"/>
		<stop  offset="1" style="stop-color:#054E80"/>
	</linearGradient>
	<path class="st9" d="M28.9,74.2l-4.3-0.8c-0.5,2.6-1.1,5.2-1.8,7.8l6.6-4.9C30.5,75.3,30.3,74.4,28.9,74.2z"/>
	<linearGradient id="SVGID_10_" gradientUnits="userSpaceOnUse" x1="20.6444" y1="15.4258" x2="72.4992" y2="84.2395">
		<stop  offset="0" style="stop-color:#00365A"/>
		<stop  offset="0.25" style="stop-color:#00365A"/>
		<stop  offset="0.5706" style="stop-color:#054E80"/>
		<stop  offset="0.7346" style="stop-color:#075B93"/>
		<stop  offset="0.8391" style="stop-color:#054E80"/>
		<stop  offset="1" style="stop-color:#054E80"/>
	</linearGradient>
	<path class="st10" d="M39.5,65.4c0.7,1.3,2.1,1.6,3.3,0.7l20.5-15.3c1.1-0.8,1.3-2.4,0.2-3.4L49.2,33.1c-1-1-3-2.1-4.4-2.4
		l-21.4-4.6c1.1,4.4,1.9,9,2.4,13.6L39.5,65.4z"/>
</g>
</svg>
